HIERARCHY
ROOT ui
{
	 OFFSET 0 0 0
	 CHANNELS 3 XPosition YPosition Z Position
	 EndSite
	 {
	 OFFSET 0 -1 0
	 }
}
ROOT li
{
	 OFFSET 0 0 0
	 CHANNELS 3 XPosition YPosition Z Position
	 EndSite
	 {
	 OFFSET 0 -1 0
	 }
}
ROOT ul
{
	 OFFSET 0 0 0
	 CHANNELS 3 XPosition YPosition Z Position
	 EndSite
	 {
	 OFFSET 0 -1 0
	 }
}
ROOT ll
{
	 OFFSET 0 0 0
	 CHANNELS 3 XPosition YPosition Z Position
	 EndSite
	 {
	 OFFSET 0 -1 0
	 }
}
ROOT tt
{
	 OFFSET 0 0 0
	 CHANNELS 3 XPosition YPosition Z Position
	 EndSite
	 {
	 OFFSET 0 -1 0
	 }
}
ROOT tb
{
	 OFFSET 0 0 0
	 CHANNELS 3 XPosition YPosition Z Position
	 EndSite
	 {
	 OFFSET 0 -1 0
	 }
}
ROOT td
{
	 OFFSET 0 0 0
	 CHANNELS 3 XPosition YPosition Z Position
	 EndSite
	 {
	 OFFSET 0 -1 0
	 }
}
ROOT v
{
	 OFFSET 0 0 0
	 CHANNELS 3 XPosition YPosition Z Position
	 EndSite
	 {
	 OFFSET 0 -1 0
	 }
}
ROOT bn
{
	 OFFSET 0 0 0
	 CHANNELS 3 XPosition YPosition Z Position
	 EndSite
	 {
	 OFFSET 0 -1 0
	 }
}
MOTION
Frames: 21
Frame Time: 0.002
0.001145303964614868	4.432080090045929E-4	0		0.527812255859375	-2.365339111328125	0		-1.154380859375	0.050834381103515625	0		-0.727449951171875	-2.662898681640625	0		1.3422064208984374	-0.6539718017578126	0		3.243615966796875	-0.06632281494140625	0		4.706400390625	-0.0010014220476150513	0		5.634029296875	0.1384485626220703	0		-0.28178521728515626	5.884814453125	0		
0.001331091046333313	5.385069847106933E-4	0		0.5450449829101562	-2.360427734375	0		-1.0482010498046874	0.04979580307006836	0		-0.7022184448242188	-2.658070068359375	0		1.33052001953125	-0.641751708984375	0		3.23075927734375	-0.07009574127197266	0		4.707607421875	0.0010716439485549927	0		5.6312548828125	0.12655513763427734	0		-0.2845421142578125	5.8889423828125	0		
-0.0015303410291671754	-0.0023308138847351074	0		0.5052745971679687	-2.35390234375	0		-1.119069091796875	0.046659320831298826	0		-0.7050991821289062	-2.66193701171875	0		1.32461376953125	-0.6485928955078125	0		3.21494140625	-0.06883623504638672	0		4.70777783203125	0.0011548290252685546	0		5.62846923828125	0.11465940856933594	0		-0.2644288330078125	5.88182763671875	0		
-0.0013833969831466674	-0.0022311670780181883	0		0.5413023681640625	-2.3641904296875	0		-1.0478831787109375	0.05000150680541992	0		-0.6720081176757813	-2.666188232421875	0		1.32171533203125	-0.6524663696289063	0		3.225926513671875	-0.08386712646484375	0		4.70486083984375	-0.0047325601577758785	0		5.62857373046875	0.11479203033447266	0		-0.29929833984375	5.87830419921875	0		
-0.02726643180847168	-0.001852450966835022	0		0.48746240234375	-2.358514404296875	0		-1.1578040771484375	0.047287696838378905	0		-0.7299138793945312	-2.66646240234375	0		1.3279022216796874	-0.6454384765625	0		3.23119140625	-0.06983877563476562	0		4.70786865234375	-0.01468902587890625	0		5.6315615234375	0.12694967651367187	0		-0.31809759521484376	5.88360888671875	0		
0.0018421449661254882	9.346110224723816E-4	0		0.5455118408203125	-2.360041748046875	0		-1.1187279052734376	0.04697445297241211	0		-0.7377228393554688	-2.654274169921875	0		1.3369542236328125	-0.647444580078125	0		3.220194580078125	-0.07664147186279296	0		4.7170966796875	-7.16838002204895E-4	0		5.63452294921875	0.13909642028808594	0		-0.2829424743652344	5.88733349609375	0		
0.001879304051399231	0.001031546950340271	0		0.5185668334960938	-2.356658447265625	0		-1.1186904296875	0.0470789794921875	0		-0.6657615356445312	-2.65994580078125	0		1.3310518798828126	-0.6412925415039062	0		3.236230224609375	-0.07673831176757813	0		4.7130693359375	-0.00660850191116333	0		5.6287353515625	0.11512944793701171	0		-0.28286544799804686	5.88743212890625	0		
-0.001158493995666504	-0.0018413360118865966	0		0.5414682006835938	-2.363814208984375	0		-1.1186959228515625	0.047181411743164064	0		-0.7387492065429687	-2.6560615234375	0		1.3279989013671876	-0.645174560546875	0		3.236223876953125	-0.07666602325439453	0		4.7130634765625	-0.006546432018280029	0		5.63163720703125	0.12726193237304687	0		-0.26487448120117185	5.88333544921875	0		
-0.02720692443847656	-0.001469689965248108	0		0.5324893798828125	-2.355629638671875	0		-1.1278310546875	0.03937788391113281	0		-0.671917236328125	-2.665685546875	0		1.3218697509765625	-0.6520264892578125	0		3.231249267578125	-0.06954199981689453	0		4.7150244140625	-0.005507070064544678	0		5.628693359375	0.11532325744628906	0		-0.2648858642578125	5.88342919921875	0		
-0.0013022359609603882	-0.0016609489917755126	0		0.54129541015625	-2.363640625	0		-1.1188389892578126	0.04737553024291992	0		-0.77589111328125	-2.652473876953125	0		1.3337822265625	-0.6510747680664063	0		3.226004638671875	-0.0834173355102539	0		4.707833984375	-0.014369674682617187	0		5.63153271484375	0.1274563522338867	0		-0.262967529296875	5.88149755859375	0		
0.0015952279567718506	0.001391772985458374	0		0.5451927490234375	-2.35960107421875	0		-1.1189735107421874	0.04746588516235352	0		-0.6552066040039063	-2.668687744140625	0		1.34262255859375	-0.653092529296875	0		3.260061279296875	-0.06571427917480469	0		4.711763671875	-0.008349560737609863	0		5.63143603515625	0.12755975341796874	0		-0.28103103637695315	5.88577783203125	0		
0.0014244049787521362	0.0014737199544906617	0		0.5361117553710938	-2.350424560546875	0		-1.1191441650390626	0.04755146026611328	0		-0.7362089233398438	-2.651731689453125	0		1.33057958984375	-0.6408863525390625	0		3.219774169921875	-0.07621119689941407	0		4.70770068359375	0.001759672999382019	0		5.63131396484375	0.12767057037353516	0		-0.2642161254882813	5.882677734375	0		
0.0012223960161209105	0.001552381992340088	0		0.5407653198242187	-2.36339990234375	0		-1.0573819580078125	0.043964012145996094	0		-0.6705379028320313	-2.663362548828125	0		1.3243013916015625	-0.647744873046875	0		3.22659326171875	-0.07421363067626953	0		4.70934765625	-0.012190494537353515	0		5.62826318359375	0.1157554931640625	0		-0.26440802001953123	5.8827568359375	0		
-0.002038248062133789	-0.0013400429487228393	0		0.5405364990234375	-2.363324951171875	0		-1.13460595703125	0.044869117736816407	0		-0.741708740234375	-2.6575224609375	0		1.3240728759765625	-0.6476699829101562	0		3.219343505859375	-0.0760634765625	0		4.70218408203125	-0.006041022777557373	0		5.628099609375	0.11588397216796875	0		-0.26463565063476563	5.88283203125	0		
-0.002288558006286621	-0.0012690390348434448	0		0.5402893676757813	-2.363253173828125	0		-1.119824951171875	0.047776763916015624	0		-0.671013427734375	-2.66321728515625	0		1.3387255859375	-0.65675830078125	0		3.241113525390625	-0.07422528839111328	0		4.71193359375	-0.006071391105651855	0		5.6350302734375	0.1106436538696289	0		-0.28284979248046876	5.88709619140625	0		
-0.0025557711124420167	-0.0012024610042572022	0		0.5171053466796875	-2.355937744140625	0		-1.1590899658203124	0.04826047134399414	0		-0.7391724853515625	-2.65342041015625	0		1.3355679931640625	-0.6466563720703125	0		3.213912841796875	-0.06785934448242187	0		4.7057314453125	7.231000065803528E-5	0		5.6306376953125	0.1281957550048828	0		-0.28412222290039063	5.8881728515625	0		
1.9765199720859526E-4	0.0018270729780197144	0		0.5438020629882813	-2.359164306640625	0		-1.0493321533203126	0.05113302993774414	0		-0.7034751586914062	-2.656748779296875	0		1.3293568115234375	-0.6405247802734375	0		3.240568115234375	-0.0740750732421875	0		4.7113876953125	-0.005911375045776367	0		5.62753271484375	0.11630601501464843	0		-0.2844241638183594	5.88823388671875	0		
-0.0031188409328460694	-0.0010830069780349732	0		0.5325949096679687	-2.352986083984375	0		-1.1246986083984376	0.043992969512939455	0		-0.739711669921875	-2.6533076171875	0		1.323000732421875	-0.6473956298828125	0		3.218263916015625	-0.07576425170898438	0		4.70110400390625	-0.005722377777099609	0		5.6273310546875	0.11645389556884765	0		-0.2648041381835938	5.88207470703125	0		
-0.0034025609493255615	-0.0010301610231399536	0		0.5661837768554687	-2.366294921875	0		-1.0630184326171874	0.0403720817565918	0		-0.7070563354492188	-2.66061376953125	0		1.3196781005859375	-0.6513021240234375	0		3.225001708984375	-0.07376706695556641	0		4.7108193359375	-0.005748260021209717	0		5.62712890625	0.11660401916503907	0		-0.30016494750976563	5.8785029296875	0		
-0.02967686080932617	-7.023040056228638E-4	0		0.5119817504882812	-2.360662353515625	0		-1.1692884521484375	0.041552467346191405	0		-0.74327880859375	-2.65718359375	0		1.334309326171875	-0.6604050903320312	0		3.208727294921875	-0.07352362823486328	0		4.70054443359375	-0.005558701992034912	0		5.62693408203125	0.11675601959228515	0		-0.284386962890625	5.88737646484375	0		
-9.045259952545166E-4	0.002029778003692627	0		0.544794677734375	-2.35596875	0		-1.121474609375	0.04807086181640625	0		-0.7384510498046875	-2.65119970703125	0		1.34014208984375	-0.6524150390625	0		3.254359619140625	-0.08394689178466797	0		4.70926416015625	-0.007572708129882813	0		5.63605322265625	0.12358856201171875	0		-0.28271502685546873	5.88539697265625	0		
